<svg xmlns="http://www.w3.org/2000/svg" width="48" height="48" viewBox="0 0 48 48"><defs><style>.a{fill:#f7f7f7;}.b{fill:none;}.c{fill:#868e96;}</style></defs><g transform="translate(-249 -103)"><circle class="a" cx="24" cy="24" r="24" transform="translate(249 103)"/><g transform="translate(257 111)"><rect class="b" width="32" height="32"/><path class="c" d="M57.946,110.3h-1.1V94.346A1.348,1.348,0,0,0,55.5,93H53.045A1.348,1.348,0,0,0,51.7,94.347V110.3H48.908v-8.72a1.348,1.348,0,0,0-1.347-1.355H45.106a1.348,1.348,0,0,0-1.347,1.355v8.725H40.968v-4.516a1.355,1.355,0,0,0-1.347-1.347H37.166a1.355,1.355,0,0,0-1.347,1.347v4.516H34.661a.5.5,0,1,0,0,1H57.946a.5.5,0,1,0,0-1Z" transform="translate(-30.304 -82.501)"/><path class="c" d="M63.358,29.2a.832.832,0,0,0-.853-.855H59.446a.832.832,0,0,0,0,1.664h1.071l-4.15,4.153-1.636-1.634a.833.833,0,0,0-1.177,0l-9.006,9.005a.833.833,0,0,0,1.177,1.177L54.142,34.3l1.634,1.634a.834.834,0,0,0,1.177,0l4.741-4.741v.894a.833.833,0,0,0,1.665,0V29.229A.218.218,0,0,0,63.358,29.2Z" transform="translate(-39.321 -25.147)"/></g></g></svg>