<svg xmlns="http://www.w3.org/2000/svg" width="48" height="48" viewBox="0 0 48 48"><defs><style>.a{fill:none;}.b{fill:#868e96;}</style></defs><g transform="translate(48 48) rotate(180)"><rect class="a" width="48" height="48"/><rect class="b" width="7.591" height="6.475" rx="3.238" transform="translate(19.409 31.038)"/><path class="b" d="M104.291,65.145a7.446,7.446,0,0,1-4.56,7.126,11,11,0,0,1-1.895.667.738.738,0,0,0-.555.7l-.01.459a.738.738,0,0,1-.738.725H91.3a.74.74,0,0,1-.74-.74V69.232a.74.74,0,0,1,.74-.738h3.019a3.426,3.426,0,0,0,2.642-.93,3.287,3.287,0,0,0,.855-2.308,3.624,3.624,0,0,0-.357-1.637A2.638,2.638,0,0,0,96.4,62.506a3.363,3.363,0,0,0-1.712-.41A3.148,3.148,0,0,0,93,62.525a2.919,2.919,0,0,0-1.062,1.135,3.182,3.182,0,0,0-.32.964.748.748,0,0,1-.732.637H85.857a.742.742,0,0,1-.738-.8,8.909,8.909,0,0,1,1.124-3.8,8.147,8.147,0,0,1,3.368-3.2,11.165,11.165,0,0,1,5.3-1.172,11,11,0,0,1,5.006,1.06,7.762,7.762,0,0,1,3.236,2.94,8.345,8.345,0,0,1,1.136,4.4Z" transform="translate(-70.703 -46.758)"/></g></svg>