<svg xmlns="http://www.w3.org/2000/svg" width="48" height="48" viewBox="0 0 48 48"><defs><style>.a{fill:none;}.b{fill:#fff;}</style></defs><rect class="a" width="48" height="48"/><path class="b" d="M62.91,28.35H32.185a3.839,3.839,0,0,0-3.835,3.835V62.91a3.839,3.839,0,0,0,3.835,3.841H62.91A3.839,3.839,0,0,0,66.75,62.91V32.185A3.839,3.839,0,0,0,62.91,28.35ZM50.521,60.8a.74.74,0,0,1-.738.74H43.67a.74.74,0,0,1-.738-.74v-5a.738.738,0,0,1,.738-.738h6.113a.738.738,0,0,1,.738.738Zm6.587-18.387a7.441,7.441,0,0,1-4.559,7.126,11.141,11.141,0,0,1-1.895.667.738.738,0,0,0-.555.7l-.01.459a.737.737,0,0,1-.738.723H44.117a.74.74,0,0,1-.74-.738V46.5a.74.74,0,0,1,.74-.74h3.019a3.426,3.426,0,0,0,2.642-.93,3.277,3.277,0,0,0,.855-2.306,3.6,3.6,0,0,0-.354-1.637,2.628,2.628,0,0,0-1.06-1.116,3.363,3.363,0,0,0-1.712-.41,3.134,3.134,0,0,0-1.693.428,2.909,2.909,0,0,0-1.062,1.135,3.171,3.171,0,0,0-.32.962.75.75,0,0,1-.732.638H38.674a.743.743,0,0,1-.732-.8,8.909,8.909,0,0,1,1.118-3.795,8.16,8.16,0,0,1,3.368-3.206,11.219,11.219,0,0,1,5.3-1.172,11,11,0,0,1,5.006,1.06,7.8,7.8,0,0,1,3.238,2.94,8.375,8.375,0,0,1,1.135,4.4Z" transform="translate(-23.549 -23.549)"/></svg>